<svg width="68" height="68" viewBox="0 0 68 68" fill="none" xmlns="http://www.w3.org/2000/svg">
<path d="M35.1 48.6V43.2H29.7V48.6H35.1ZM37.8 48.6H27V42.2782C21.4624 40.3209 17.3067 35.4382 16.3897 29.487C10.1334 28.4114 5.40002 23.3897 5.40002 17.3572V10.8C5.40002 9.30886 6.60886 8.10002 8.10002 8.10002H16.2C16.2 6.60886 17.4089 5.40002 18.9 5.40002H45.9C47.3912 5.40002 48.6 6.60886 48.6 8.10002H56.7C58.1912 8.10002 59.4 9.30886 59.4 10.8V17.3572C59.4 23.3897 54.6666 28.4114 48.4103 29.487C47.4934 35.4382 43.3377 40.3209 37.8 42.2782V48.6ZM18.9 8.10002V27C18.9 34.4559 24.9442 40.5 32.4 40.5C39.8559 40.5 45.9 34.4559 45.9 27V8.10002H18.9ZM56.7 17.3572V10.8H48.6V26.6967C53.2864 25.6201 56.7 21.8079 56.7 17.3572ZM16.2 10.8H8.10002V17.3572C8.10002 21.8079 11.5137 25.6201 16.2 26.6967V10.8Z" fill="#222132"/>
<path d="M43.2 48.6C44.6912 48.6 45.9 49.3118 45.9 51.3V56.7C45.9 58.6882 44.6912 59.4 43.2 59.4H21.6C20.1089 59.4 18.9 58.6882 18.9 56.7V51.3C18.9 49.3118 20.1089 48.6 21.6 48.6H43.2ZM21.6 56.7H43.2V51.3H21.6V56.7Z" fill="#222132"/>
</svg>
